<svg width="130" height="211" viewBox="0 0 130 211" fill="none" xmlns="http://www.w3.org/2000/svg">
<path d="M1 2V210H5.5V64L129 209V200.5L126.25 197.5L123.5 194.5L5.5 55.5V15L123.5 154.976V160V194.5L126.25 197.5L129 200.5V183V161.5V2H123.5V147.5L1 2Z" fill="#0F1153"/>
<path d="M129 161.5V2H123.5V147.5L1 2V210H5.5V64L129 209M129 161.5V209M129 161.5V183V200.5M123.5 194.5L5.5 55.5V15L123.5 154.976M123.5 194.5V154.976M123.5 194.5V160V154.976M123.5 194.5L126.25 197.5L129 200.5M129 209V200.5" stroke="#2D2C5C"/>
</svg>
